<mxfile host="app.diagrams.net" modified="2022-03-04T16:20:53.311Z" agent="5.0 (Windows NT 10.0; Win64; x64) AppleWebKit/537.36 (KHTML, like Gecko) Chrome/98.0.4758.102 Safari/537.36" etag="EIpvPrNLBi22Dod-52nD" version="16.6.5" type="github">
  <diagram id="APoQwRmvCVOQ1MYEb2q3" name="Page-1">
    <mxGraphModel dx="1108" dy="460" grid="1" gridSize="10" guides="1" tooltips="1" connect="1" arrows="1" fold="1" page="1" pageScale="1" pageWidth="827" pageHeight="1169" math="0" shadow="0">
      <root>
        <mxCell id="0" />
        <mxCell id="1" parent="0" />
        <mxCell id="oaNfcxI___qEai4BzGdi-1" value="&lt;font style=&quot;font-size: 18px&quot;&gt;API&lt;br&gt;GATEWAY&lt;/font&gt;" style="rounded=0;whiteSpace=wrap;html=1;" vertex="1" parent="1">
          <mxGeometry x="110" y="20" width="90" height="480" as="geometry" />
        </mxCell>
      </root>
    </mxGraphModel>
  </diagram>
</mxfile>
